<svg xmlns="http://www.w3.org/2000/svg" xmlns:xlink="http://www.w3.org/1999/xlink" version="1.1" x="0px" y="0px" viewBox="-5.0 -10.0 110.0 135.0" enable-background="new 0 0 100 100" xml:space="preserve"><g><path d="M35.316,85.378c-1.604,0-3.208-0.044-4.805-0.153c-1.748-0.119-3.521-0.317-5.236-0.509   c-3.946-0.44-8.025-0.896-11.987-0.401c-0.292,0.037-0.702,0.115-1.181,0.207c-2.245,0.428-5.636,1.077-6.717-0.444   c-0.776-1.091-0.272-3.582,1.499-7.403c1.931-4.166,5.375-8.011,10.235-11.43l0,0c2.443-1.718,5.063-3.253,7.597-4.739   c3.93-2.303,7.994-4.685,11.405-7.766c1.161-1.049,2.435-2.341,3.078-3.973c0.584-1.48,0.611-3.135,0.637-4.736l0.36-22.477   c0.01-0.63,0.024-1.493,0.509-2.171c1-1.4,3.106-1.046,4.639-0.125c2.203,1.323,4.064,3.189,5.381,5.396l0.127,0.215   c0.398,0.676,0.811,1.375,1.44,1.631c0.562,0.229,1.294,0.083,1.882-0.033l11.973-2.381c0.726-0.145,1.476-0.293,2.075-0.677   c1.338-0.857,1.68-2.66,2.01-4.402c0.064-0.341,0.128-0.678,0.199-1.006c0.276-1.288,1.103-3.09,2.524-3.934   c0.723-0.428,1.511-0.536,2.273-0.31c1.277,0.379,2.025,1.57,2.644,2.801c3.706,7.375,6.369,15.224,7.915,23.329   c0.725,3.801,1.412,8.763,0.285,13.443c-1.176,4.882-4.371,8.845-8.336,10.34c-0.339,0.126-0.581,0.217-0.731,0.361   c-0.311,0.298-0.311,0.883-0.283,1.457c0.267,5.537,0.167,11.142-0.299,16.661c-0.042,0.49-0.098,1.162-0.503,1.696   c-0.51,0.672-1.348,0.868-2.1,0.972c-2.893,0.398-5.835,0.146-8.679-0.097c-0.899-0.077-1.799-0.154-2.697-0.211   c-5.24-0.333-10.592,0.021-15.769,0.366C42.953,85.125,39.133,85.378,35.316,85.378z M16.987,83.099c2.822,0,5.643,0.315,8.4,0.623   c1.704,0.19,3.466,0.387,5.193,0.504c5.325,0.363,10.771,0.002,16.037-0.348c5.208-0.345,10.592-0.703,15.898-0.366   c0.905,0.058,1.812,0.135,2.718,0.213c2.79,0.239,5.673,0.486,8.457,0.104c0.55-0.076,1.151-0.205,1.44-0.586   c0.212-0.28,0.263-0.698,0.304-1.175c0.461-5.475,0.561-11.037,0.296-16.529c-0.028-0.594-0.076-1.588,0.589-2.227   c0.3-0.287,0.667-0.424,0.991-0.545c3.74-1.41,6.697-5.104,7.796-9.669c1.077-4.468,0.456-9.09-0.294-13.021   c-1.528-8.014-4.161-15.775-7.826-23.067c-0.482-0.959-1.077-2.007-2.035-2.292c-0.497-0.148-0.994-0.077-1.479,0.21   c-0.926,0.55-1.753,1.87-2.057,3.284c-0.069,0.32-0.131,0.649-0.194,0.982c-0.353,1.86-0.751,3.969-2.453,5.058   c-0.758,0.485-1.641,0.661-2.419,0.815l-11.973,2.381c-0.681,0.136-1.612,0.32-2.454-0.021c-0.942-0.384-1.464-1.269-1.925-2.05   l-0.124-0.21c-1.234-2.066-2.976-3.813-5.038-5.052c-0.962-0.578-2.639-1.095-3.311-0.152c-0.281,0.393-0.312,0.96-0.323,1.606   l-0.36,22.477c-0.026,1.612-0.056,3.438-0.706,5.087c-0.724,1.834-2.165,3.287-3.339,4.348c-3.487,3.15-7.595,5.558-11.569,7.887   c-2.516,1.475-5.118,3-7.527,4.694l0,0c-4.715,3.316-8.047,7.028-9.903,11.032c-1.788,3.857-1.994,5.836-1.591,6.402   c0.709,0.998,4.09,0.352,5.715,0.041c0.504-0.097,0.937-0.178,1.244-0.217C14.435,83.164,15.711,83.099,16.987,83.099z    M17.413,65.654h0.01H17.413z"/></g><g><circle cx="53.491" cy="47.631" r="2.58"/></g><g><circle cx="79.577" cy="43.324" r="2.289"/></g><g><ellipse transform="matrix(0.9902 -0.1398 0.1398 0.9902 -6.33 10.2005)" cx="69.417" cy="50.141" rx="2.804" ry="1.191"/></g><g><path d="M86.343,47.726c-0.201,0-0.391-0.122-0.467-0.321c-0.099-0.258,0.03-0.547,0.288-0.646   c1.344-0.516,2.733-1.049,4.229-1.188c1.719-0.159,3.316,0.293,4.377,1.243c0.206,0.184,0.223,0.5,0.039,0.706   c-0.184,0.206-0.5,0.224-0.706,0.039c-0.854-0.764-2.165-1.125-3.618-0.992c-1.359,0.125-2.683,0.633-3.963,1.125   C86.463,47.715,86.403,47.726,86.343,47.726z"/></g><g><path d="M86.223,52.292c-0.149,0-0.297-0.066-0.396-0.194c-0.169-0.218-0.129-0.532,0.089-0.701   c2.033-1.576,5.028-1.812,7.282-0.572c0.242,0.133,0.331,0.437,0.197,0.679c-0.133,0.242-0.438,0.329-0.679,0.197   c-1.916-1.054-4.461-0.854-6.188,0.486C86.438,52.257,86.33,52.292,86.223,52.292z"/></g><g><path d="M40.576,57.071c-0.178,0-0.35-0.095-0.44-0.263c-0.131-0.243-0.041-0.546,0.203-0.677c2.114-1.141,4.342-2.104,6.621-2.862   c0.263-0.084,0.545,0.055,0.632,0.317c0.087,0.262-0.055,0.545-0.317,0.632c-2.224,0.739-4.398,1.679-6.461,2.792   C40.738,57.052,40.656,57.071,40.576,57.071z"/></g><g><path d="M42.154,61.803c-0.142,0-0.282-0.06-0.381-0.176c-0.179-0.21-0.153-0.526,0.057-0.705c1.958-1.665,4.101-3.122,6.367-4.333   c0.243-0.13,0.547-0.039,0.676,0.206c0.13,0.243,0.038,0.546-0.206,0.676c-2.204,1.177-4.287,2.594-6.19,4.212   C42.384,61.764,42.269,61.803,42.154,61.803z"/></g></svg>