<svg xmlns="http://www.w3.org/2000/svg" xmlns:xlink="http://www.w3.org/1999/xlink" version="1.1" x="0px" y="0px" viewBox="-5.0 -10.0 110.0 135.0" enable-background="new 0 0 100 100" xml:space="preserve"><g><path d="M50.356,93.152c-1.936,0-3.925-0.114-5.958-0.345c-5.537-0.627-10.022-1.945-13.713-4.028   c-4.586-2.588-7.905-6.399-9.345-10.731c-0.624-1.879-0.728-3.464-0.319-4.847c0.538-1.815,2.069-3.136,3.725-3.212   c2.268-0.112,3.908,1.932,4.621,3.708c0.303,0.752,0.518,1.538,0.727,2.296c0.298,1.086,0.581,2.112,1.093,3.042   c2.194,3.981,7.591,4.72,12.581,4.918c8.564,0.341,17.403,0.244,23.522-4.658c-1.812-0.231-3.646-0.293-5.467-0.185l-0.352,0.021   l-0.138-0.325c-0.029-0.07-0.057-0.14-0.083-0.211c-3.246,0.365-6.538,0.569-9.798,0.605c-1.416,0.015-2.881-0.03-4.126-0.693   c-2.234,2.827-6.396,3.874-9.695,2.371c-0.922-0.42-1.428-1.011-1.465-1.708c-0.018-0.343,0.083-0.646,0.233-0.914   c-1.103,0.274-1.641,0.098-2.6-0.216l-0.554-0.178c-1.004-0.313-1.895-1.159-2.268-2.157c-0.294-0.786-0.236-1.575,0.163-2.223   c0.334-0.542,0.828-0.885,1.306-1.216c0.152-0.106,0.304-0.211,0.449-0.323c2.749-2.131,2.465-6.479,1.038-9.618   c-0.613-1.347-1.41-2.652-2.18-3.914c-1.146-1.875-2.33-3.815-2.975-5.98c-0.71-2.386-0.722-4.894-0.733-7.319   c-0.004-0.996-0.009-2.026-0.063-3.026c-0.036-0.661-0.096-1.354-0.404-1.912c-0.292-0.53-0.797-0.932-1.331-1.358   c-0.137-0.109-0.274-0.219-0.408-0.33c-3.334-2.781-5.062-7.604-4.62-12.898c0.391-4.698,2.245-9.051,4.039-13.261   c0.756-1.775,1.697-3.985,3.5-5.345l0.119-0.089l0.618-0.042c1.741-0.145,2.364,1.687,2.86,3.159   c0.135,0.401,0.268,0.798,0.419,1.15c1.079,2.51,4.318,3.225,7.346,3.594c2.228,0.271,4.534,0.43,6.099-0.831   c0.414-0.334,0.758-0.756,1.123-1.202c0.302-0.37,0.614-0.753,0.979-1.096c1.306-1.226,3.211-1.79,4.975-1.472l0.325,0.059   l0.074,0.323c0.65,2.862,0.349,5.862,0.058,8.765c-0.371,3.694-0.722,7.184,0.752,10.338c1.769,3.786,5.503,5.779,9.458,7.889   c2.433,1.299,4.95,2.642,7.009,4.452c4.343,3.816,6.443,9.577,8.071,14.677c1.339,4.192,2.622,8.668,2.334,13.244   c-0.479,7.626-5.723,15.181-13.359,19.248C63.042,91.796,57.018,93.152,50.356,93.152z M24.905,70.985   c-0.038,0-0.075,0-0.113,0.002c-1.379,0.063-2.458,1.304-2.812,2.498c-0.35,1.18-0.249,2.569,0.309,4.247   c1.361,4.097,4.518,7.71,8.887,10.176c3.572,2.016,7.934,3.293,13.334,3.906c8.831,0.999,16.795-0.227,23.036-3.549   c7.336-3.907,12.372-11.14,12.831-18.427c0.277-4.403-0.979-8.776-2.288-12.878c-1.587-4.972-3.628-10.582-7.779-14.23   c-1.972-1.733-4.437-3.048-6.82-4.32c-3.924-2.095-7.982-4.26-9.893-8.349c-1.59-3.403-1.209-7.194-0.841-10.861   c0.272-2.706,0.553-5.5,0.033-8.108c-1.354-0.142-2.786,0.326-3.785,1.264c-0.317,0.297-0.595,0.638-0.89,0.999   c-0.38,0.466-0.774,0.948-1.27,1.348c-1.868,1.505-4.408,1.342-6.848,1.044c-3.309-0.403-6.865-1.216-8.144-4.191   c-0.161-0.375-0.304-0.797-0.448-1.226c-0.521-1.548-0.931-2.546-1.837-2.481l-0.326,0.022c-1.516,1.206-2.339,3.139-3.067,4.848   c-1.762,4.137-3.584,8.415-3.962,12.952c-0.414,4.971,1.18,9.475,4.265,12.048c0.128,0.106,0.259,0.211,0.39,0.315   c0.588,0.469,1.195,0.953,1.584,1.658c0.409,0.743,0.486,1.598,0.526,2.341c0.056,1.024,0.061,2.066,0.065,3.075   c0.011,2.355,0.022,4.791,0.691,7.039c0.608,2.041,1.707,3.839,2.87,5.744c0.787,1.288,1.6,2.619,2.237,4.021   c1.584,3.485,1.842,8.359-1.336,10.822c-0.158,0.123-0.324,0.238-0.49,0.354c-0.412,0.286-0.8,0.556-1.025,0.921   c-0.299,0.485-0.207,1-0.077,1.347c0.265,0.707,0.919,1.331,1.628,1.552l0.568,0.183c0.974,0.319,1.299,0.425,2.311,0.125   l1.909-2.532c0.581-0.765,0.807-0.982,1.145-0.929l0.292,0.043l0.121,0.292c0.246,0.661-1.767,3.606-2.089,3.98l-0.083,0.096   c-0.279,0.32-0.567,0.652-0.551,0.954c0.021,0.414,0.623,0.732,0.881,0.85c2.964,1.351,6.884,0.271,8.737-2.408l0.282-0.408   l0.41,0.279c1.086,0.739,2.559,0.789,3.965,0.769c3.187-0.036,6.403-0.233,9.576-0.585c-0.145-1.17,0.163-2.393,0.881-3.34   c0.182-0.24,0.388-0.461,0.595-0.682c0.295-0.315,0.574-0.613,0.754-0.954c0.238-0.451,0.273-1.022,0.095-1.567   c-0.178-0.545-0.543-0.986-1.002-1.21c-0.248-0.121-0.351-0.42-0.23-0.668c0.121-0.249,0.423-0.351,0.668-0.23   c0.701,0.342,1.253,0.998,1.515,1.799c0.261,0.8,0.203,1.655-0.161,2.344c-0.242,0.459-0.581,0.821-0.909,1.171   c-0.183,0.195-0.367,0.391-0.528,0.603c-0.556,0.733-0.795,1.71-0.681,2.631c0.231,0.02,0.423,0.199,0.453,0.438   c0.005,0.044,0.004,0.088-0.001,0.13c2.028-0.074,4.066,0.056,6.068,0.388l1.016,0.168l-0.761,0.694   c-6.412,5.853-15.894,5.988-25.06,5.624c-5.268-0.209-10.982-1.018-13.417-5.435c-0.57-1.034-0.881-2.166-1.182-3.26   c-0.201-0.732-0.409-1.489-0.69-2.188C27.817,72.518,26.49,70.985,24.905,70.985z"/></g><g><circle cx="44.636" cy="29.831" r="1.812"/></g><g><circle cx="26.732" cy="27.527" r="1.597"/></g><g><ellipse cx="34.655" cy="31.335" rx="2.027" ry="0.86"/></g><g><path d="M52.874,35.541c-0.137,0-0.273-0.056-0.372-0.166c-0.828-0.922-1.947-1.596-3.15-1.898   c-0.268-0.067-0.431-0.338-0.363-0.606c0.067-0.269,0.336-0.431,0.606-0.363c1.395,0.349,2.692,1.13,3.651,2.2   c0.185,0.206,0.167,0.521-0.038,0.706C53.112,35.499,52.993,35.541,52.874,35.541z"/></g><g><path d="M51.2,37.963c-0.166,0-0.328-0.082-0.423-0.232c-0.634-1.001-1.508-1.851-2.526-2.457   c-0.237-0.141-0.315-0.448-0.174-0.686c0.142-0.237,0.448-0.316,0.686-0.174c1.153,0.686,2.142,1.648,2.859,2.781   c0.148,0.233,0.079,0.542-0.155,0.69C51.384,37.938,51.291,37.963,51.2,37.963z"/></g><g><path d="M17.284,30.14c-0.191,0-0.374-0.11-0.457-0.295c-0.113-0.252,0-0.548,0.251-0.661c1.425-0.64,2.998-0.886,4.553-0.71   c0.274,0.031,0.472,0.279,0.441,0.553c-0.031,0.274-0.276,0.466-0.553,0.441c-1.374-0.155-2.769,0.062-4.031,0.628   C17.422,30.126,17.353,30.14,17.284,30.14z"/></g><g><path d="M18.236,33.271c-0.179,0-0.351-0.096-0.441-0.264c-0.13-0.243-0.039-0.546,0.205-0.677   c1.211-0.648,2.575-0.961,3.949-0.958c0.276,0.004,0.497,0.231,0.492,0.508c-0.005,0.276-0.197,0.511-0.508,0.492   c-1.208-0.005-2.4,0.272-3.461,0.84C18.396,33.252,18.315,33.271,18.236,33.271z"/></g></svg>