<svg xmlns="http://www.w3.org/2000/svg" xmlns:xlink="http://www.w3.org/1999/xlink" version="1.1" x="0px" y="0px" viewBox="0 0 35.28 44.1" enable-background="new 0 0 35.28 35.28" xml:space="preserve"><g><path fill="#000000" d="M15.355,11.17c-0.288,0.185-0.804,0.752-0.476,1.097c0.088,0.093,0.281-0.002,0.228-0.132   c-0.125-0.299,0.217-0.573,0.39-0.782C15.574,11.257,15.474,11.095,15.355,11.17z"/><path fill="#000000" d="M13.499,10.665c0.024-0.07,0.06-0.128,0.121-0.175c0.077-0.058,0.183-0.075,0.249-0.145   c0.061-0.063,0.033-0.167-0.05-0.192c-0.121-0.035-0.265,0.04-0.363,0.104c-0.113,0.074-0.211,0.194-0.237,0.331   C13.183,10.772,13.436,10.843,13.499,10.665z"/><path fill="#000000" d="M13.17,11.442c-0.066,0.432,0.347,0.808,0.672,0.447C14.017,11.696,13.198,11.249,13.17,11.442z"/><path fill="#000000" d="M13.17,11.442C13.178,11.389,13.139,11.646,13.17,11.442L13.17,11.442z"/><path fill="#000000" d="M12.938,12.155c-0.033-0.03-0.083-0.03-0.116,0c-0.131,0.125-0.005,0.328,0.083,0.436   c0.107,0.132,0.331,0.266,0.505,0.202c0.114-0.041,0.134-0.219,0-0.251c-0.118-0.027-0.203-0.032-0.296-0.122   C13.034,12.345,13.013,12.23,12.938,12.155z"/><path fill="#000000" d="M15.051,8.639c0.01,0.109,0.188,0.153,0.207,0.027c0.096-0.688,0.243-1.459-0.204-2.042   c-0.457-0.595,0.251-0.896,0.753-1.008c0.284-0.063,0.541-0.026,0.799,0.101c0.704,0.346,0.145,0.617-0.019,0.817   c-0.038,0.045-0.211,2.675,0.135,3.639c0.062,0.172,0.319,0.105,0.275-0.075c-0.144-0.589-0.244-1.169-0.278-1.773   c-0.03-0.535,0.03-1.639,0.013-1.653c0.401-0.072,0.568-0.4,0.437-0.801c-0.159-0.478-0.843-0.634-1.272-0.573   c-0.44,0.062-1.289,0.284-1.345,0.851c-0.021,0.219,0.048,0.38,0.185,0.554C15.202,7.294,14.985,7.944,15.051,8.639z"/><path fill="#000000" d="M23.054,19.734c-0.497,0.551-0.816,1.476-1.563,1.735c-0.77,0.268-1.506-0.089-2.18-0.568   c0.064-0.028,0.117-0.088,0.099-0.176c-0.271-1.312-0.608-2.65-1.051-3.915c-0.477-1.365-0.666-4.324-0.672-4.329   c0.084-0.139,0.146-0.286,0.218-0.438c0.111-0.233,0.265-0.386,0.473-0.532c0.198-0.143,0.345-0.308,0.265-0.561   c-0.205-0.657-1.331-0.444-1.809-0.401c-0.021,0.002-0.502-0.057-0.703-0.12c-0.287-0.093-0.562-0.602-0.565-0.609   c0.184-0.279,0.298-0.575,0.424-0.887c0.035-0.088-0.053-0.176-0.136-0.178c-1.021-0.017-2.792-0.145-3.423,0.922   c-0.079,0.133,0.117,0.294,0.218,0.168c0.707-0.869,1.976-0.829,3.004-0.812c-0.095,0.239-0.189,0.479-0.271,0.723   c-0.057,0.026-0.1,0.079-0.08,0.159c0.081,0.329,0.298,0.58,0.599,0.729c0.414,0.246,1.409,0.088,1.646,0.101   c0.193,0.01,1.173,0.157,0.684,0.515c-0.417,0.305-0.764,0.737-0.808,1.275c-0.006,0.07,0.07,0.118,0.134,0.105   c-0.182,0.515,0.038,1.092,0.085,1.628c0.063,0.729,0.089,1.429,0.271,2.143c0.367,1.449,0.821,2.88,1.182,4.334   c-0.452-0.344-0.871-0.721-1.249-0.976c-0.108-0.073-0.207,0.082-0.132,0.171c0.792,0.93,2.673,2.427,4.004,1.781   c0.838-0.405,1.57-2.664,2.616-2.051c0.937,0.55,0.952,1.843,0.572,2.717c-0.451,1.043-1.465,1.499-2.547,1.534   c-1.177,0.037-2.338-0.518-3.324-1.103c-1.046-0.619-1.611-1.681-1.913-2.818c-0.054-0.201-0.366-0.116-0.313,0.087   c0.613,2.311,2.47,3.67,4.786,4.097c1.946,0.357,3.827-0.817,3.879-2.886C25.505,20.01,24.157,18.509,23.054,19.734z"/><path fill="#000000" d="M19.734,23.843c0.029-0.148-0.187-0.211-0.228-0.063c-0.187,0.663,0.166,1.546,0.318,2.182   c0.249,1.043,0.648,2.244,0.481,3.326c-0.085,0.555-0.541,0.572-0.918,0.246c-0.442-0.384-1.717-3.144-2.078-4.792   c-0.11-0.394-0.683-2.978-1.547-2.471c-0.69,0.404-0.394,1.921-0.352,2.544c0.077,1.159,0.216,2.317,0.25,3.479   c0.019,0.627,0.38,2.158-0.763,1.848c-1.634-0.173-2.497-5.381-3.146-7.116c-0.658-1.768-0.675-3.824-0.746-5.686   c-0.646-4.246-0.555-8.934-0.456-10.715c-0.001-0.115-0.109-0.15-0.193-0.121c-0.184-0.262-0.309-0.539-0.213-0.868   c0.125-0.432,0.641-0.586,1.033-0.604c0.376-0.018,0.783,0.133,1.007,0.443c0.288,0.397-0.031,0.754-0.244,1.081   c-0.034,0.053-0.019,0.11,0.017,0.152c-0.099,0.743-0.063,1.514-0.055,2.262c0.008,0.761-0.023,1.598,0.208,2.328   c0.037,0.116,0.203,0.091,0.209-0.028c0.044-0.757-0.087-1.539-0.104-2.3c-0.019-0.749,0.04-1.514-0.055-2.258   c0.378-0.276,0.592-0.829,0.373-1.267c-0.241-0.478-0.746-0.683-1.256-0.716c-0.526-0.035-1.073,0.194-1.347,0.654   c-0.272,0.461-0.066,1.029,0.324,1.342c0.002,0.002,0.005,0.001,0.007,0.003c-0.01,1.66,0.052,6.733,0.179,7.564   c0.153,1.017,0.231,2.02,0.269,3.046c0.064,1.847,0.162,3.728,0.667,5.517c0.279,0.992,0.68,1.941,0.943,2.945   c0.224,0.846,0.852,3.901,1.912,4.375c0.344,0.24,1.186,0.605,1.538,0.181c0.365-0.439,0.296-1.019,0.245-1.554   c-0.049-0.524-0.469-4.538-0.306-5.841c0.059-0.341,0.493-0.267,0.628-0.006c0.24,0.466,0.851,2.52,1.011,3.031   c0.369,1.188,0.787,2.474,1.55,3.476c0.321,0.422,1.136,0.991,1.549,0.333c0.467-0.744,0.114-1.932-0.054-2.716   C20.18,26.07,19.672,24.375,19.734,23.843z"/></g><text x="0" y="50.28" fill="#000000" font-size="5px" font-weight="bold" font-family="'Helvetica Neue', Helvetica, Arial-Unicode, Arial, Sans-serif">Created by Julia Amadeo</text><text x="0" y="55.28" fill="#000000" font-size="5px" font-weight="bold" font-family="'Helvetica Neue', Helvetica, Arial-Unicode, Arial, Sans-serif">from the Noun Project</text></svg>