<svg xmlns="http://www.w3.org/2000/svg" xmlns:xlink="http://www.w3.org/1999/xlink" version="1.1" x="0px" y="0px" viewBox="-5.0 -10.0 110.0 135.0" enable-background="new 0 0 100 100" xml:space="preserve"><g><path d="M51.836,93.275c-13.905,0.001-28.384-7.345-38.076-19.652c-2.096-2.661-3.505-4.956-4.436-7.222   c-1.431-3.48-2.017-7.494-1.846-12.632c0.241-7.219,1.886-13.293,4.891-18.054c3.625-5.743,9.562-9.572,15.492-9.994   c1.866-0.135,3.208,0.217,4.102,1.069c1.996,1.9,0.91,5.21-1.194,7.498c-1.175,1.277-2.514,2.44-3.809,3.565   c-2.496,2.169-4.854,4.218-6.197,7.045c-1.375,2.895-1.468,6.327-1.55,9.355c-0.12,4.389-0.015,9.242,2.432,12.551   c-0.606-3.285-0.783-6.747,1.244-9.36c0.176-0.227,0.368-0.445,0.561-0.663c0.449-0.509,0.873-0.99,1.051-1.56   c0.358-1.147-0.334-2.29-1.067-3.5c-0.697-1.149-1.417-2.338-1.375-3.701c0.063-2.064,2.126-3.811,4.35-3.754   c1.88,0.054,3.764,1.265,4.918,3.16c1.058,1.738,1.425,3.768,1.645,5.524c0.125,0.995,0.219,2.125,0.126,3.256   c1.136-1.209,2.552-2.156,4.114-2.724c-0.999-1.651-1.049-3.821-0.07-5.504c0.621-1.068,1.539-1.439,2.349-1.767   c0.53-0.214,1.031-0.417,1.392-0.798c0.611-0.646,0.471-0.948-0.111-1.897c-0.24-0.392-0.513-0.836-0.727-1.381   c-1.3-3.312-1.262-6.986-1.099-10.773l0.572-13.301c0.119-2.765,1.066-4.439,2.667-4.715c0.992-0.175,2.072,0.277,3.124,1.299   c1.435,1.394,2.467,3.21,2.938,5.155c4.541-0.467,9.096-1.205,13.556-2.195c-0.277-3.067,0.551-6.24,2.302-8.771   c0.297-0.431,0.646-0.855,1.181-1.045c0.652-0.231,1.33-0.004,1.782,0.188c3.168,1.339,5.101,4.221,7.124,7.572l8.922,14.773   c0.786,1.302,1.599,2.648,2.134,4.13c0.37,1.024,0.593,2.073,0.809,3.087c1.839,8.642,3.314,16.449,2.733,24.496   c-0.674,9.333-4.244,17.203-10.052,22.162c-3.042,2.597-6.961,4.643-12.335,6.438c-3.381,1.13-6.409,1.875-9.257,2.275   C55.393,93.154,53.619,93.275,51.836,93.275z M28.604,26.693c-0.213,0-0.437,0.008-0.672,0.025   c-5.619,0.399-11.259,4.051-14.717,9.531c-2.909,4.608-4.502,10.514-4.738,17.553c-0.166,4.992,0.397,8.875,1.772,12.219   c0.895,2.178,2.26,4.397,4.297,6.983c10.717,13.61,27.381,21.031,42.459,18.914c2.787-0.392,5.757-1.123,9.079-2.233   c5.249-1.754,9.063-3.74,12.003-6.251c5.603-4.784,9.049-12.41,9.704-21.474c0.572-7.916-0.891-15.649-2.714-24.215   c-0.209-0.981-0.425-1.996-0.771-2.956c-0.502-1.39-1.289-2.693-2.05-3.953l-8.922-14.773c-1.931-3.198-3.765-5.945-6.657-7.167   c-0.299-0.126-0.733-0.28-1.058-0.166c-0.267,0.095-0.49,0.378-0.693,0.671c-1.699,2.457-2.458,5.566-2.083,8.531l0.057,0.45   l-0.442,0.1c-4.783,1.081-9.68,1.875-14.555,2.357l-0.453,0.045l-0.087-0.446c-0.375-1.914-1.353-3.717-2.751-5.076   c-0.566-0.55-1.421-1.179-2.257-1.031c-1.469,0.253-1.782,2.473-1.838,3.773l-0.572,13.301c-0.158,3.675-0.198,7.234,1.031,10.365   c0.182,0.463,0.419,0.85,0.648,1.224c0.565,0.922,1.15,1.876-0.015,3.108c-0.511,0.54-1.138,0.793-1.744,1.038   c-0.756,0.306-1.41,0.57-1.859,1.343c-0.879,1.512-0.715,3.595,0.391,4.951l0.478,0.587l-0.728,0.209   c-2.333,0.672-4.366,2.27-5.594,4.358c-0.133,0.32-0.292,0.631-0.484,0.929l-0.876-0.477c0.141-0.311,0.298-0.614,0.469-0.909   c0.629-1.565,0.524-3.409,0.317-5.056c-0.207-1.651-0.548-3.552-1.507-5.129c-0.979-1.609-2.547-2.636-4.092-2.68   c-1.537-0.049-3.271,1.137-3.321,2.784c-0.033,1.068,0.581,2.081,1.23,3.153c0.816,1.346,1.659,2.738,1.167,4.315   c-0.242,0.774-0.757,1.358-1.255,1.923c-0.178,0.203-0.357,0.405-0.521,0.615c-2.134,2.751-1.475,6.77-0.689,10.321l0.336,1.519   l-1.158-1.039c-3.92-3.517-4.096-9.397-3.954-14.632c0.085-3.127,0.182-6.671,1.646-9.757c1.433-3.017,3.981-5.23,6.445-7.372   c1.274-1.107,2.591-2.252,3.728-3.487c1.38-1.5,2.937-4.481,1.241-6.097C30.697,26.963,29.82,26.693,28.604,26.693z M39.444,31.383   h0.01H39.444z"/></g><g><path d="M42.175,79.602c-0.26,0-0.479-0.201-0.498-0.463c-0.02-0.275,0.187-0.515,0.462-0.535c2.096-0.153,4.052-1.643,4.757-3.622   s0.13-4.37-1.397-5.813c-0.228-0.214-0.473-0.411-0.718-0.607c-0.435-0.349-0.885-0.709-1.254-1.173   c-1.509-1.897-0.964-4.541-0.505-5.948c0.194-0.596,0.426-1.183,0.658-1.769c0.479-1.211,0.932-2.354,1.056-3.574   c0.06-0.586,0.042-1.176,0.022-1.8c-0.018-0.6-0.037-1.219,0.019-1.841c0.147-1.628,0.86-2.889,1.956-3.461   c1.48-0.774,3.271-0.097,4.273,0.974c1.061,1.133,1.49,2.682,1.745,3.906c0.544,2.607,0.655,5.262,0.33,7.901   c3.221,0.379,6.8,0.86,9.878,2.483c3.651,1.925,5.964,5.365,5.893,8.764c-0.006,0.276-0.197,0.502-0.511,0.489   c-0.276-0.006-0.495-0.234-0.489-0.511c0.064-3.023-2.04-6.108-5.359-7.857c-3.075-1.621-6.612-2.034-10.033-2.434l-0.51-0.06   l0.074-0.509c0.389-2.69,0.304-5.402-0.25-8.062c-0.229-1.096-0.605-2.475-1.496-3.426c-0.726-0.773-2.053-1.307-3.081-0.771   c-0.777,0.405-1.309,1.401-1.422,2.665c-0.05,0.561-0.033,1.124-0.015,1.72c0.019,0.629,0.039,1.28-0.027,1.933   c-0.139,1.357-0.638,2.619-1.122,3.84c-0.224,0.567-0.449,1.134-0.637,1.71c-0.397,1.216-0.88,3.485,0.336,5.016   c0.3,0.376,0.688,0.687,1.098,1.016c0.266,0.213,0.532,0.427,0.779,0.661c1.807,1.707,2.486,4.534,1.653,6.875   c-0.834,2.341-3.147,4.103-5.626,4.284C42.2,79.601,42.188,79.602,42.175,79.602z"/></g><g><path d="M66.714,58.372c-1.174,0-2.297-0.493-2.996-1.333c-1.073-1.289-1.153-3.299-0.216-5.378   c1.092-2.42,3.098-4.271,5.367-4.953c2.555-0.768,5.427,0.038,6.984,1.958c0.174,0.215,0.141,0.529-0.074,0.704   c-0.215,0.173-0.529,0.139-0.704-0.074c-1.307-1.613-3.743-2.284-5.919-1.63c-1.996,0.599-3.769,2.246-4.743,4.406   c-0.599,1.329-0.895,3.164,0.073,4.327c0.563,0.677,1.526,1.043,2.501,0.96c0.903-0.079,1.822-0.523,2.587-1.253   c0.115-0.109,0.23-0.225,0.348-0.342c0.785-0.784,1.765-1.757,3.005-1.418c0.267,0.073,0.423,0.348,0.351,0.614   c-0.073,0.267-0.351,0.419-0.614,0.351c-0.685-0.188-1.371,0.498-2.035,1.161c-0.123,0.123-0.245,0.244-0.364,0.358   c-0.929,0.886-2.062,1.428-3.19,1.526C66.955,58.367,66.834,58.372,66.714,58.372z"/></g><g><path d="M65.042,33.15c-0.045,0-0.091-0.006-0.137-0.019c-0.266-0.075-0.42-0.352-0.345-0.617c0.401-1.415,1.643-2.538,3.09-2.795   c1.448-0.259,3,0.369,3.864,1.559c0.162,0.224,0.112,0.536-0.111,0.699c-0.225,0.162-0.536,0.112-0.699-0.111   c-0.633-0.873-1.816-1.347-2.879-1.162c-1.062,0.189-2.009,1.045-2.303,2.083C65.459,33.007,65.259,33.15,65.042,33.15z"/></g><g><path d="M46.721,35.716c-0.071,0-0.144-0.015-0.213-0.048c-0.25-0.118-0.356-0.416-0.239-0.666   c0.589-1.249,1.911-2.123,3.291-2.175c1.392-0.056,2.765,0.721,3.446,1.921c0.136,0.24,0.052,0.545-0.188,0.682   c-0.239,0.136-0.545,0.052-0.682-0.188c-0.502-0.885-1.528-1.447-2.538-1.416c-1.016,0.039-1.99,0.683-2.424,1.603   C47.088,35.61,46.908,35.716,46.721,35.716z"/></g><g><path d="M57.931,41.776c-0.846,0-1.654-0.29-2.247-0.812c-0.207-0.182-0.227-0.499-0.044-0.706c0.184-0.208,0.5-0.227,0.706-0.044   c0.45,0.396,1.086,0.599,1.759,0.557c0.667-0.042,1.278-0.326,1.674-0.777l0.071-0.083c0.153-0.181,0.344-0.406,0.646-0.525   c0.563-0.224,1.088,0.063,1.469,0.271l0.122,0.066c1.348,0.715,3.258,0.154,4.004-1.176c0.135-0.241,0.44-0.326,0.681-0.191   c0.241,0.135,0.327,0.44,0.191,0.681c-1.015,1.809-3.513,2.542-5.345,1.57l-0.133-0.072c-0.22-0.12-0.491-0.269-0.621-0.219   c-0.069,0.027-0.162,0.136-0.251,0.242l-0.083,0.096c-0.57,0.649-1.431,1.055-2.361,1.115   C58.088,41.774,58.009,41.776,57.931,41.776z"/></g><g><path d="M78.122,32.957c-0.161,0-0.318-0.077-0.415-0.22c-0.155-0.229-0.095-0.54,0.134-0.694c2.845-1.923,6.302-3.049,9.733-3.169   c0.271-0.013,0.507,0.206,0.517,0.482s-0.206,0.508-0.482,0.517c-3.246,0.114-6.517,1.179-9.209,2.999   C78.315,32.929,78.218,32.957,78.122,32.957z"/></g><g><path d="M79.724,35.966c-0.154,0-0.306-0.071-0.404-0.204c-0.163-0.223-0.115-0.536,0.107-0.699   c2.435-1.786,5.31-2.883,8.314-3.175c0.278-0.026,0.52,0.175,0.546,0.449c0.027,0.275-0.174,0.52-0.449,0.546   c-2.826,0.274-5.53,1.307-7.819,2.986C79.93,35.935,79.827,35.966,79.724,35.966z"/></g><g><path d="M35.464,39.458c-0.216,0-0.415-0.141-0.479-0.357c-0.079-0.265,0.072-0.543,0.337-0.622   c2.697-0.801,5.579-0.93,8.336-0.374c0.271,0.055,0.446,0.318,0.391,0.589c-0.055,0.271-0.317,0.447-0.589,0.391   c-2.597-0.524-5.312-0.402-7.853,0.352C35.559,39.451,35.511,39.458,35.464,39.458z"/></g><g><path d="M36.282,42.973c-0.174,0-0.342-0.09-0.435-0.252c-0.137-0.24-0.054-0.545,0.186-0.682c2.412-1.376,5.253-1.935,8.009-1.575   c0.274,0.036,0.467,0.287,0.431,0.561c-0.036,0.273-0.287,0.465-0.561,0.431c-2.538-0.33-5.161,0.184-7.383,1.452   C36.451,42.952,36.366,42.973,36.282,42.973z"/></g></svg>