<svg xmlns="http://www.w3.org/2000/svg" xmlns:xlink="http://www.w3.org/1999/xlink" version="1.1" x="0px" y="0px" viewBox="-5.0 -10.0 110.0 135.0" enable-background="new 0 0 100 100" xml:space="preserve"><g><path d="M56.156,93.882c-1.928,0-3.625-1.211-4.146-2.956c-0.804,0.128-2.315,0.026-4.444-0.142   c-1.457-0.114-3.454-0.269-3.816-0.126c-0.654,0.263-1.062,0.781-1.495,1.329c-0.78,0.99-1.662,2.115-4.02,1.783   c-1.127-0.156-2.278-0.639-3.421-1.434c-10.133-7.059-15.986-19.596-14.913-31.94c0.195-2.251,0.577-3.896,1.236-5.335   c0.774-1.687,1.971-3.112,3.032-4.316c3.824-4.337,7.674-7.673,11.768-10.199c3.003-1.854,6.31-3.367,9.508-4.83   c6.303-2.884,12.255-5.608,16.344-10.771c1.199-1.513,1.877-2.836,2.136-4.164c0.312-1.598-0.088-3.2-1.042-4.181   c-1.318-1.354-3.463-1.473-5.028-1.331c-0.666,0.06-1.329,0.163-1.991,0.265c-1.258,0.194-2.557,0.394-3.874,0.306   c-1.063-0.073-1.795-0.389-2.238-0.967c-0.421-0.551-0.544-1.34-0.347-2.222c0.663-2.965,3.763-4.479,6.217-4.875   c5.078-0.815,10.737,1.643,14.086,6.125c1.27,1.699,1.984,3.375,2.124,4.982c0.143,1.642-0.302,3.245-0.756,4.597   c-2.277,6.781-6.759,11.684-11.99,13.114l-0.196,0.053c-0.501,0.133-0.974,0.259-1.291,0.55c-0.16,0.146-0.266,0.397-0.259,0.608   c0.004,0.118,0.041,0.206,0.11,0.261c0.093,0.074,0.259,0.116,0.435,0.162c3.611,0.939,6.057,3.903,8.171,6.968   c3.732,5.41,6.091,10.083,7.423,14.709c1.174,4.076,2.102,10.233-0.146,16.421c-2.192,6.037-6.862,10.656-11.583,14.748   c-1.584,1.374-3.308,2.721-5.418,2.801C56.274,93.881,56.215,93.882,56.156,93.882z M52.179,89.886   c0.132,0,0.262,0.035,0.379,0.104c0.184,0.108,0.319,0.293,0.372,0.508c0.353,1.442,1.76,2.44,3.365,2.382   c1.786-0.068,3.351-1.301,4.801-2.558c4.619-4.003,9.184-8.511,11.298-14.334c2.156-5.935,1.257-11.87,0.125-15.803   c-1.301-4.518-3.616-9.099-7.285-14.418c-2.004-2.906-4.306-5.711-7.542-6.553c-0.299-0.077-0.604-0.155-0.864-0.362   c-0.299-0.239-0.472-0.597-0.486-1.008c-0.018-0.505,0.206-1.034,0.582-1.379c0.498-0.458,1.142-0.629,1.709-0.78l0.19-0.051   c4.909-1.342,9.135-6.003,11.306-12.468c0.421-1.254,0.834-2.734,0.708-4.192c-0.124-1.418-0.772-2.922-1.928-4.47   C65.774,10.309,60.5,8.01,55.78,8.766c-2.145,0.346-4.846,1.628-5.4,4.105c-0.076,0.341-0.156,0.975,0.167,1.396   c0.257,0.336,0.751,0.525,1.511,0.577c1.204,0.083,2.394-0.102,3.653-0.296c0.683-0.105,1.367-0.211,2.054-0.273   c1.786-0.16,4.242-0.008,5.835,1.629c1.18,1.212,1.68,3.154,1.307,5.069c-0.29,1.49-1.031,2.95-2.333,4.593   c-4.238,5.351-10.58,8.252-16.712,11.059c-3.17,1.451-6.448,2.951-9.398,4.771c-4.009,2.474-7.785,5.748-11.543,10.01   c-1.014,1.15-2.156,2.509-2.873,4.072c-0.61,1.329-0.964,2.873-1.149,5.005c-1.043,11.994,4.644,24.175,14.488,31.033   c1.012,0.704,2.018,1.129,2.987,1.264c1.788,0.246,2.366-0.485,3.097-1.412c0.471-0.598,1.005-1.275,1.907-1.638   c0.549-0.221,1.979-0.122,4.267,0.057c1.661,0.13,3.726,0.292,4.335,0.125l0,0C52.044,89.895,52.112,89.886,52.179,89.886z    M52.11,90.396h0.01H52.11z"/></g><g><path d="M29.753,65.122c-0.061,0-0.123-0.011-0.183-0.035c-0.257-0.101-0.384-0.391-0.283-0.648l2.668-6.808   c0.356-0.907,0.76-1.935,1.511-2.727c0.736-0.777,2.008-1.373,3.193-0.953c1.155,0.411,1.709,1.543,2.198,2.542   c0.449,0.919,0.874,1.786,1.662,2.033c0.267,0.083,0.572,0.091,0.896,0.099l12.695,0.314c0.338,0.007,0.687,0.017,0.958-0.096   c0.575-0.238,0.762-0.938,0.978-1.749c0.193-0.724,0.413-1.544,0.985-2.127c1.082-1.1,2.925-0.821,4.014,0.067   c1.067,0.872,1.618,2.205,2.061,3.276l2.009,4.859c0.105,0.255-0.016,0.547-0.271,0.653c-0.253,0.106-0.547-0.015-0.653-0.271   l-2.009-4.859c-0.421-1.018-0.898-2.172-1.77-2.884c-0.752-0.615-2.003-0.818-2.668-0.141c-0.388,0.394-0.555,1.021-0.732,1.684   c-0.249,0.932-0.53,1.987-1.561,2.415c-0.468,0.194-0.968,0.18-1.366,0.172l-12.695-0.314c-0.361-0.009-0.771-0.02-1.17-0.145   c-1.199-0.375-1.764-1.529-2.262-2.548c-0.444-0.908-0.864-1.766-1.634-2.04c-0.76-0.27-1.618,0.157-2.132,0.698   c-0.617,0.651-0.967,1.543-1.306,2.405l-2.668,6.808C30.141,65.001,29.953,65.122,29.753,65.122z"/></g><g><ellipse cx="36.806" cy="73.769" rx="1.765" ry="1.762"/></g><g><ellipse cx="58.132" cy="73.769" rx="1.765" ry="1.762"/></g><g><path d="M49.848,81.428c-0.195,0-0.388-0.021-0.569-0.063c-0.72-0.167-1.306-0.57-1.872-0.964   c-0.494,0.596-1.308,0.899-2.172,0.805c-0.801-0.084-1.51-0.456-2.136-0.783c-0.245-0.128-0.339-0.43-0.211-0.674   s0.43-0.341,0.674-0.211c0.574,0.3,1.167,0.61,1.779,0.675c0.483,0.05,1.092-0.093,1.358-0.53c0.067-0.11,0.193-0.317,0.462-0.384   c0.294-0.078,0.524,0.081,0.611,0.14l0.183,0.127c0.519,0.36,1.008,0.701,1.55,0.826c0.488,0.112,1.12-0.021,1.331-0.441   c0.124-0.247,0.426-0.347,0.671-0.222c0.247,0.124,0.346,0.425,0.222,0.671C51.369,81.112,50.59,81.428,49.848,81.428z"/></g><g><path d="M71.817,78.681c-0.028,0-0.056-0.002-0.085-0.007c-3.273-0.56-6.604-0.654-9.9-0.281c-0.278,0.035-0.522-0.167-0.553-0.44   c-0.031-0.274,0.167-0.522,0.441-0.553c3.39-0.382,6.815-0.286,10.181,0.29c0.272,0.046,0.455,0.305,0.408,0.577   C72.268,78.509,72.056,78.681,71.817,78.681z"/></g><g><path d="M71.588,83.555c-0.102,0-0.205-0.031-0.294-0.096c-2.743-1.998-6.253-2.978-9.634-2.692   c-0.267,0.033-0.517-0.18-0.54-0.456c-0.023-0.275,0.181-0.517,0.456-0.54c3.613-0.308,7.373,0.744,10.307,2.88   c0.223,0.163,0.272,0.476,0.11,0.699C71.895,83.484,71.743,83.555,71.588,83.555z"/></g><g><path d="M27.127,79.984c-0.196,0-0.382-0.116-0.462-0.309c-0.106-0.255,0.015-0.547,0.271-0.653   c2.742-1.136,5.757-1.676,8.726-1.564c0.276,0.01,0.491,0.243,0.48,0.519c-0.011,0.276-0.267,0.513-0.519,0.48   c-2.823-0.108-5.696,0.407-8.305,1.489C27.256,79.972,27.191,79.984,27.127,79.984z"/></g><g><path d="M26.122,83.946c-0.149,0-0.297-0.067-0.396-0.194c-0.169-0.218-0.129-0.533,0.089-0.702   c2.951-2.284,6.631-3.622,10.36-3.766c0.286-0.012,0.509,0.204,0.519,0.48c0.011,0.276-0.204,0.508-0.48,0.519   c-3.523,0.137-7,1.4-9.787,3.558C26.336,83.912,26.229,83.946,26.122,83.946z"/></g></svg>