<svg xmlns="http://www.w3.org/2000/svg" version="1.1" viewBox="-5.0 -10.0 110.0 135.0">
 <path d="m22.137 12.367c-2.043 0.007812-3.7539 1.0938-4.7773 2.5742-1.0234 1.4805-1.5508 3.293-1.918 5.2188-0.73438 3.8555-0.78516 8.3047-1.2891 11.152-1.2109 6.8398-3.2656 14.57-3.9961 22.148l-2.1836-0.125v-0.003907c-0.41406-0.023437-0.82031 0.11719-1.1289 0.39453-0.30859 0.27344-0.49609 0.66406-0.51953 1.0781-0.050781 0.85937 0.60938 1.5977 1.4688 1.6445l2.1523 0.125c-0.042968 0.98828-0.050781 1.9766-0.03125 2.9531l-2.9961 0.28516c-0.85938 0.082031-1.4883 0.84375-1.4062 1.7031s0.84375 1.4883 1.6992 1.4062l2.8906-0.27344c0.12109 1.1445 0.28906 2.2812 0.53125 3.3945l-3.1289 0.54688c-0.40625 0.074218-0.76953 0.30469-1.0117 0.64062-0.23828 0.33984-0.33203 0.75781-0.26172 1.168 0.070312 0.41016 0.30078 0.77344 0.64062 1.0117 0.33984 0.23828 0.75781 0.33203 1.168 0.26172l3.4531-0.60547c0.69922 2.0039 1.6484 3.9297 2.9297 5.7383 3.6406 5.1289 9.3359 7.9062 15.445 9.5234 6.1094 1.6211 12.711 2.1172 18.477 2.5625 5.5117 0.42578 12.004 1.0781 18.137 0.51953 6.1328-0.55859 12.035-2.3711 15.957-7.0781 2.4961-2.9961 3.9727-6.4258 4.75-10.086l4.7695 0.82812c0.41016 0.074219 0.83203-0.019531 1.168-0.25781 0.33984-0.23828 0.57031-0.60156 0.64453-1.0117 0.070313-0.41016-0.023437-0.82813-0.26172-1.168-0.23828-0.33984-0.60156-0.57031-1.0117-0.64062l-4.8203-0.83984c0.11719-1.082 0.19141-2.1797 0.21484-3.2852l4.8945 0.46484v-0.003907c0.41406 0.039063 0.82422-0.085937 1.1445-0.35156 0.32031-0.26172 0.51953-0.64453 0.55859-1.0586 0.039063-0.41016-0.085937-0.82422-0.35156-1.1406-0.26562-0.32031-0.64453-0.52344-1.0586-0.5625l-5.2344-0.49609c-0.042969-0.86719-0.11719-1.7344-0.19922-2.6055l4.5547-0.26172 0.003906 0.003906c0.85938-0.050781 1.5195-0.78906 1.4688-1.6484-0.023437-0.41406-0.21094-0.80469-0.51953-1.0781-0.30859-0.27734-0.71484-0.41797-1.1289-0.39453l-4.7383 0.27344c-1.0312-7.4258-3.1289-14.93-4.5117-21.492-0.67578-3.207-1.0469-8.0117-2.1641-12.137-0.55859-2.0625-1.2969-3.9883-2.5195-5.5156-1.2188-1.5273-3.0664-2.6016-5.2578-2.5977-1.9844 0.003907-3.4688 1.3789-4.4219 2.9219-0.95312 1.5391-1.5742 3.4023-2.043 5.2305-0.66016 2.5781-0.71094 3.8281-0.84375 5.1016-7.4805-3.8828-16.418-3.4336-23.703-1.8086-5.957 1.3281-9.9258 2.9883-12.012 3.9141-0.0625-1.4453-0.050782-3.2344-0.69531-6.5273-0.43359-2.2109-1.0469-4.4531-2.0625-6.293s-2.6641-3.457-4.9062-3.4492zm0.007812 3.125c0.77734-0.003907 1.4258 0.49219 2.1641 1.8359 0.73828 1.3398 1.332 3.3438 1.7305 5.3789 0.79688 4.0703 0.87109 8.2227 0.87109 8.2227h0.003906c0.007813 0.53516 0.29297 1.0312 0.75 1.3086 0.45703 0.27734 1.0273 0.30469 1.5078 0.0625 0 0 5.7812-2.8477 13.328-4.5312 7.5469-1.6836 16.676-2.0977 23.363 2.3203 0.46484 0.30469 1.0547 0.33984 1.5508 0.09375 0.49609-0.24219 0.82422-0.73438 0.86719-1.2891 0 0 0.25781-3.3867 1.1094-6.6992 0.42578-1.6562 1.0078-3.2812 1.6758-4.3555 0.66797-1.0742 1.2188-1.4453 1.7734-1.4453 1.2734 0 2.0273 0.44922 2.8125 1.4297 0.78125 0.97656 1.4453 2.5352 1.9453 4.3789 0.99609 3.6875 1.3672 8.3945 2.1211 11.965 1.4023 6.6328 3.4375 13.977 4.4453 21.023l-8.6562 0.49609-0.003906 0.003906c-0.86328 0.046875-1.5195 0.78516-1.4727 1.6484 0.023438 0.41406 0.21094 0.80078 0.52344 1.0781 0.30859 0.27734 0.71875 0.41797 1.1328 0.39062l8.8438-0.50781c0.070312 0.71484 0.11719 1.4258 0.16016 2.1289l-8.9492-0.84766-0.003907-0.003906c-0.41406-0.039063-0.82422 0.089844-1.1445 0.35156-0.31641 0.26562-0.51953 0.64453-0.55859 1.0586-0.039062 0.41406 0.089844 0.82422 0.35156 1.1445 0.26562 0.32031 0.64453 0.51953 1.0586 0.55859l9.3242 0.88281c-0.015625 1.0352-0.066406 2.0508-0.16797 3.0469l-8.9648-1.5625c-0.40625-0.074219-0.82812 0.019531-1.168 0.25781-0.33984 0.23828-0.57031 0.60156-0.64062 1.0117-0.070313 0.40625 0.023437 0.82812 0.26172 1.168 0.23828 0.33984 0.60156 0.57031 1.0117 0.64062l9.0117 1.5703c-0.69141 3.1914-1.9727 6.1055-4.0703 8.625-3.1875 3.8242-8.1328 5.4453-13.844 5.9648-5.707 0.52344-12.047-0.089844-17.609-0.52344-5.7695-0.44531-12.203-0.94922-17.922-2.4648s-10.641-4.0078-13.699-8.3125c-0.99609-1.4023-1.7656-2.8984-2.3555-4.4727l10.285-1.7969c0.85156-0.14844 1.418-0.95703 1.2695-1.8086-0.070313-0.40625-0.30078-0.77344-0.64062-1.0117s-0.75781-0.33203-1.168-0.25781l-10.641 1.8594c-0.23047-1.0234-0.37891-2.0781-0.49219-3.1484l11.324-1.0742c0.41406-0.035156 0.79297-0.23828 1.0586-0.55859 0.26562-0.32031 0.39062-0.73047 0.35156-1.1445-0.082032-0.85547-0.84375-1.4883-1.7031-1.4062l-11.23 1.0625c-0.011719-0.81641 0.003906-1.6445 0.039062-2.4805l11.25 0.64844c0.85938 0.046875 1.5977-0.60938 1.6484-1.4727 0.046875-0.85938-0.60938-1.5977-1.4727-1.6484l-11.207-0.64844c0.71094-7.1836 2.7109-14.789 3.9492-21.785 0.58594-3.3203 0.62891-7.6875 1.2773-11.113 0.32422-1.7109 0.81641-3.1523 1.4141-4.0234 0.60156-0.86719 1.125-1.2227 2.2148-1.2266zm43.379 23.066c-0.097657 0-0.19922 0-0.30078 0.007812-1.5938 0.03125-2.9453 1.0039-3.6133 2.1953-0.67969 1.207-0.87891 2.5938-0.82031 3.9531 0.058594 1.3594 0.38672 2.7031 1.0625 3.8438 0.67578 1.1445 1.8867 2.1836 3.4375 2.1836 1.5742 0 2.7773-1.0938 3.4336-2.2656 0.65625-1.168 0.96094-2.5312 1.0117-3.8984 0.046875-1.3711-0.15625-2.75-0.83203-3.9531-0.625-1.1133-1.9062-2.0352-3.3789-2.0664zm-34.926 2.1836c-1.4727 0.03125-2.7539 0.95312-3.3789 2.0625-0.67578 1.2031-0.87891 2.5859-0.82812 3.9531 0.046875 1.3711 0.35547 2.7344 1.0117 3.9023 0.65625 1.168 1.8594 2.2578 3.4336 2.2578 1.5508 0 2.7617-1.0391 3.4375-2.1836 0.67578-1.1445 1.0039-2.4883 1.0625-3.8438 0.058593-1.3594-0.14063-2.7422-0.81641-3.9531-0.66797-1.1914-2.0234-2.168-3.6211-2.1953-0.097657-0.007813-0.19922-0.007813-0.29688-0.007813zm19.875 10.695c-0.14844 0-0.30078 0-0.45312 0.003906-0.40234 0.007813-0.8125 0.027344-1.2188 0.058594-1.6328 0.125-3.2578 0.4375-4.6328 1.0312-0.6875 0.29688-1.3203 0.66406-1.8555 1.207-0.53516 0.54688-0.96094 1.3516-0.96094 2.2383 0 2.1875 1.1328 3.9336 2.5742 4.8906 0.9375 0.625 1.9688 0.98047 2.9805 1.1406v10.621c-1.3594 0.89062-2.3203 0.69922-3.1914 0.35547-0.99219-0.39062-1.6367-1.082-1.6367-1.082l0.003906-0.007813c-0.27734-0.30859-0.66406-0.49219-1.0742-0.51562-0.41406-0.027344-0.82031 0.11719-1.1289 0.39062-0.64453 0.57422-0.69922 1.5625-0.125 2.2031 0 0 1.0664 1.2266 2.8203 1.918 1.5039 0.59375 3.6953 0.44531 5.8359-0.80078 0.48828 0.28906 1.1875 0.76953 2.7148 1.25 0.98438 0.3125 2.1016 0.55078 3.2852 0.48047 1.1836-0.066406 2.4688-0.49609 3.457-1.4883l-0.003907 0.003907c0.60938-0.61328 0.60547-1.5977-0.003906-2.207-0.61328-0.60547-1.5977-0.60547-2.207 0.007813-0.375 0.375-0.79688 0.53125-1.4258 0.56641-0.62891 0.035156-1.4141-0.10547-2.1641-0.34375-0.80078-0.25391-1.5234-0.59375-2.0312-0.85938v-10.609c1.4453-0.37891 2.7734-1.2109 3.8867-2.2188 1.4922-1.3516 2.707-3.0625 2.6445-5.1094-0.027344-0.92969-0.64453-1.6719-1.2344-2.0664-0.58594-0.39062-1.2148-0.60156-1.9023-0.75781-0.89844-0.20312-1.9023-0.30078-2.9492-0.30859z"/>
</svg>