<?xml version="1.0" encoding="UTF-8" standalone="no"?>
<!DOCTYPE svg PUBLIC "-//W3C//DTD SVG 1.1//EN" "http://www.w3.org/Graphics/SVG/1.1/DTD/svg11.dtd">
<svg width="100%" height="100%" viewBox="0 0 31 31" version="1.1" xmlns="http://www.w3.org/2000/svg" xmlns:xlink="http://www.w3.org/1999/xlink" xml:space="preserve" xmlns:serif="http://www.serif.com/" style="fill-rule:evenodd;clip-rule:evenodd;stroke-linejoin:round;stroke-miterlimit:2;">
    <g transform="matrix(1.03448,0,0,1.03448,-13.9828,-1.56897)">
        <circle cx="28.5" cy="16.5" r="14.5" style="fill:white;"/>
    </g>
    <g transform="matrix(1,0,0,1,-1,-2)">
        <path d="M15.355,11.17C15.067,11.355 14.551,11.922 14.879,12.267C14.967,12.36 15.16,12.265 15.107,12.135C14.982,11.836 15.324,11.562 15.497,11.353C15.574,11.257 15.474,11.095 15.355,11.17Z" style="fill-rule:nonzero;"/>
        <path d="M13.499,10.665C13.523,10.595 13.559,10.537 13.62,10.49C13.697,10.432 13.803,10.415 13.869,10.345C13.93,10.282 13.902,10.178 13.819,10.153C13.698,10.118 13.554,10.193 13.456,10.257C13.343,10.331 13.245,10.451 13.219,10.588C13.183,10.772 13.436,10.843 13.499,10.665Z" style="fill-rule:nonzero;"/>
        <path d="M13.17,11.442C13.104,11.874 13.517,12.25 13.842,11.889C14.017,11.696 13.198,11.249 13.17,11.442Z" style="fill-rule:nonzero;"/>
        <path d="M13.17,11.442C13.178,11.389 13.139,11.646 13.17,11.442Z" style="fill-rule:nonzero;"/>
        <path d="M12.938,12.155C12.905,12.125 12.855,12.125 12.822,12.155C12.691,12.28 12.817,12.483 12.905,12.591C13.012,12.723 13.236,12.857 13.41,12.793C13.524,12.752 13.544,12.574 13.41,12.542C13.292,12.515 13.207,12.51 13.114,12.42C13.034,12.345 13.013,12.23 12.938,12.155Z" style="fill-rule:nonzero;"/>
        <path d="M15.051,8.639C15.061,8.748 15.239,8.792 15.258,8.666C15.354,7.978 15.501,7.207 15.054,6.624C14.597,6.029 15.305,5.728 15.807,5.616C16.091,5.553 16.348,5.59 16.606,5.717C17.31,6.063 16.751,6.334 16.587,6.534C16.549,6.579 16.376,9.209 16.722,10.173C16.784,10.345 17.041,10.278 16.997,10.098C16.853,9.509 16.753,8.929 16.719,8.325C16.689,7.79 16.749,6.686 16.732,6.672C17.133,6.6 17.3,6.272 17.169,5.871C17.01,5.393 16.326,5.237 15.897,5.298C15.457,5.36 14.608,5.582 14.552,6.149C14.531,6.368 14.6,6.529 14.737,6.703C15.202,7.294 14.985,7.944 15.051,8.639Z" style="fill-rule:nonzero;"/>
        <path d="M23.054,19.734C22.557,20.285 22.238,21.21 21.491,21.469C20.721,21.737 19.985,21.38 19.311,20.901C19.375,20.873 19.428,20.813 19.41,20.725C19.139,19.413 18.802,18.075 18.359,16.81C17.882,15.445 17.693,12.486 17.687,12.481C17.771,12.342 17.833,12.195 17.905,12.043C18.016,11.81 18.17,11.657 18.378,11.511C18.576,11.368 18.723,11.203 18.643,10.95C18.438,10.293 17.312,10.506 16.834,10.549C16.813,10.551 16.332,10.492 16.131,10.429C15.844,10.336 15.569,9.827 15.566,9.82C15.75,9.541 15.864,9.245 15.99,8.933C16.025,8.845 15.937,8.757 15.854,8.755C14.833,8.738 13.062,8.61 12.431,9.677C12.352,9.81 12.548,9.971 12.649,9.845C13.356,8.976 14.625,9.016 15.653,9.033C15.558,9.272 15.464,9.512 15.382,9.756C15.325,9.782 15.282,9.835 15.302,9.915C15.383,10.244 15.6,10.495 15.901,10.644C16.315,10.89 17.31,10.732 17.547,10.745C17.74,10.755 18.72,10.902 18.231,11.26C17.814,11.565 17.467,11.997 17.423,12.535C17.417,12.605 17.493,12.653 17.557,12.64C17.375,13.155 17.595,13.732 17.642,14.268C17.705,14.997 17.731,15.697 17.913,16.411C18.28,17.86 18.734,19.291 19.095,20.745C18.643,20.401 18.224,20.024 17.846,19.769C17.738,19.696 17.639,19.851 17.714,19.94C18.506,20.87 20.387,22.367 21.718,21.721C22.556,21.316 23.288,19.057 24.334,19.67C25.271,20.22 25.286,21.513 24.906,22.387C24.455,23.43 23.441,23.886 22.359,23.921C21.182,23.958 20.021,23.403 19.035,22.818C17.989,22.199 17.424,21.137 17.122,20C17.068,19.799 16.756,19.884 16.809,20.087C17.422,22.398 19.279,23.757 21.595,24.184C23.541,24.541 25.422,23.367 25.474,21.298C25.505,20.01 24.157,18.509 23.054,19.734Z" style="fill-rule:nonzero;"/>
        <path d="M19.734,23.843C19.763,23.695 19.547,23.632 19.506,23.78C19.319,24.443 19.672,25.326 19.824,25.962C20.073,27.005 20.472,28.206 20.305,29.288C20.22,29.843 19.764,29.86 19.387,29.534C18.945,29.15 17.67,26.39 17.309,24.742C17.199,24.348 16.626,21.764 15.762,22.271C15.072,22.675 15.368,24.192 15.41,24.815C15.487,25.974 15.626,27.132 15.66,28.294C15.679,28.921 16.04,30.452 14.897,30.142C13.263,29.969 12.4,24.761 11.751,23.026C11.093,21.258 11.076,19.202 11.005,17.34C10.359,13.094 10.45,8.406 10.549,6.625C10.548,6.51 10.44,6.475 10.356,6.504C10.172,6.242 10.047,5.965 10.143,5.636C10.268,5.204 10.784,5.05 11.176,5.032C11.552,5.014 11.959,5.165 12.183,5.475C12.471,5.872 12.152,6.229 11.939,6.556C11.905,6.609 11.92,6.666 11.956,6.708C11.857,7.451 11.893,8.222 11.901,8.97C11.909,9.731 11.878,10.568 12.109,11.298C12.146,11.414 12.312,11.389 12.318,11.27C12.362,10.513 12.231,9.731 12.214,8.97C12.195,8.221 12.254,7.456 12.159,6.712C12.537,6.436 12.751,5.883 12.532,5.445C12.291,4.967 11.786,4.762 11.276,4.729C10.75,4.694 10.203,4.923 9.929,5.383C9.657,5.844 9.863,6.412 10.253,6.725C10.255,6.727 10.258,6.726 10.26,6.728C10.25,8.388 10.312,13.461 10.439,14.292C10.592,15.309 10.67,16.312 10.708,17.338C10.772,19.185 10.87,21.066 11.375,22.855C11.654,23.847 12.055,24.796 12.318,25.8C12.542,26.646 13.17,29.701 14.23,30.175C14.574,30.415 15.416,30.78 15.768,30.356C16.133,29.917 16.064,29.337 16.013,28.802C15.964,28.278 15.544,24.264 15.707,22.961C15.766,22.62 16.2,22.694 16.335,22.955C16.575,23.421 17.186,25.475 17.346,25.986C17.715,27.174 18.133,28.46 18.896,29.462C19.217,29.884 20.032,30.453 20.445,29.795C20.912,29.051 20.559,27.863 20.391,27.079C20.18,26.07 19.672,24.375 19.734,23.843Z" style="fill-rule:nonzero;"/>
    </g>
</svg>
